Coordinates
version=1
nRows=65
nColumns=12
inDegrees=yes

Units are S.I. units (second, meters, Newtons, ...)
Angles are in degrees

endheader
time	SC_y	SC_z	SC_x	AC_y	AC_z	AC_x	GH_y	GH_z	GH_yy	EL_x	PS_y
       0.0               -17.4           37.3          25.21          36.41          2.249         -3.597          147.9           44.0          67.27           18.1          44.59
  0.003495               -17.4           37.3          25.21          36.42          2.246         -3.599          147.9           44.0          67.25           18.1           44.6
   0.00699               -17.4           37.3          25.21          36.42          2.243         -3.601          147.9           44.0          67.24           18.1          44.61
   0.01048               -17.4           37.3          25.21          36.43           2.24         -3.604          147.8          43.99          67.22           18.1          44.62
   0.01398               -17.4          37.31          25.21          36.43          2.236         -3.607          147.8          43.99           67.2           18.1          44.63
   0.01747               -17.4          37.31          25.21          36.44          2.233         -3.609          147.8          43.99          67.19           18.1          44.64
   0.02097               -17.4          37.31          25.21          36.45          2.229         -3.612          147.7          43.98          67.17          18.11          44.65
   0.02446               -17.4          37.31          25.21          36.45          2.225         -3.616          147.7          43.98          67.14          18.11          44.66
   0.02796              -17.41          37.31          25.21          36.46           2.22         -3.619          147.6          43.97          67.12          18.11          44.68
   0.03145              -17.41          37.31          25.21          36.47          2.215         -3.623          147.6          43.97           67.1          18.11          44.69
   0.03495              -17.41          37.31           25.2          36.48           2.21         -3.627          147.6          43.97          67.07          18.12           44.7
   0.03844              -17.41          37.31           25.2          36.49          2.205         -3.631          147.5          43.96          67.04          18.12          44.72
   0.04194              -17.41          37.31           25.2           36.5          2.199         -3.636          147.4          43.95          67.01          18.12          44.74
   0.04543              -17.41          37.31           25.2          36.51          2.192          -3.64          147.4          43.95          66.98          18.12          44.75
   0.04893              -17.41          37.31           25.2          36.52          2.186         -3.646          147.3          43.94          66.94          18.13          44.77
   0.05242              -17.41          37.31          25.19          36.53          2.178         -3.652          147.2          43.93           66.9          18.13           44.8
   0.05592              -17.41          37.31          25.19          36.54           2.17         -3.658          147.2          43.93          66.86          18.14          44.82
   0.05941              -17.42          37.31          25.19          36.56          2.161         -3.665          147.1          43.92          66.82          18.14          44.84
   0.06291              -17.42          37.31          25.19          36.58          2.151         -3.672          147.0          43.91          66.77          18.15          44.87
    0.0664              -17.42          37.31          25.18          36.59          2.141         -3.681          146.9           43.9          66.71          18.15           44.9
    0.0699              -17.42          37.31          25.18          36.61          2.129          -3.69          146.8          43.89          66.65          18.16          44.93
   0.07339              -17.42          37.31          25.18          36.63          2.116           -3.7          146.7          43.88          66.58          18.16          44.97
   0.07689              -17.43          37.31          25.17          36.66          2.102         -3.711          146.5          43.86          66.51          18.17          45.01
   0.08038              -17.43          37.31          25.17          36.68          2.086         -3.723          146.4          43.85          66.43          18.18          45.06
   0.08388              -17.43          37.31          25.16          36.71          2.069         -3.736          146.2          43.83          66.34          18.19          45.11
   0.08737              -17.44          37.31          25.16          36.75          2.049         -3.752          146.0          43.81          66.24           18.2          45.16
   0.09086              -17.44          37.32          25.15          36.78          2.027         -3.769          145.8          43.79          66.13          18.21          45.22
   0.09436              -17.44          37.32          25.14          36.82          2.003         -3.788          145.6          43.77           66.0          18.22          45.29
   0.09785              -17.45          37.32          25.13          36.87          1.975         -3.809          145.3          43.74          65.86          18.24          45.37
    0.1013              -17.45          37.32          25.12          36.92          1.943         -3.834          145.0          43.71          65.69          18.25          45.46
    0.1048              -17.46          37.32          25.11          36.98          1.907         -3.861          144.7          43.68          65.51          18.27          45.56
    0.1083              -17.47          37.32           25.1          37.05          1.866         -3.894          144.3          43.64          65.29          18.29          45.68
    0.1118              -17.48          37.33          25.09          37.13          1.818         -3.931          143.8          43.59          65.05          18.32          45.82
    0.1153              -17.49          37.33          25.07          37.23          1.763         -3.973          143.3          43.54          64.76          18.35          45.97
    0.1188               -17.5          37.33          25.05          37.33          1.698         -4.024          142.7          43.48          64.43          18.38          46.16
    0.1223              -17.51          37.34          25.03          37.46          1.621         -4.083          141.9          43.41          64.03          18.42          46.37
    0.1258              -17.53          37.34           25.0          37.61           1.53         -4.153          141.1          43.32          63.56          18.47          46.63
    0.1293              -17.55          37.34          24.97           37.8          1.421         -4.238          140.0          43.22           63.0          18.53          46.94
    0.1328              -17.57          37.35          24.93          38.02           1.29          -4.34          138.8          43.09          62.32           18.6          47.31
    0.1363               -17.6          37.36          24.88          38.29          1.128         -4.465          137.2          42.94          61.49          18.68          47.77
    0.1398              -17.64          37.37          24.82          38.62         0.9297         -4.619          135.4          42.75          60.46          18.78          48.33
    0.1433              -17.68          37.38          24.75          39.03         0.6818         -4.811          133.0          42.52          59.18          18.91          49.04
    0.1468              -17.74           37.4          24.66          39.55         0.3695         -5.053          130.0          42.22          57.57          19.07          49.92
    0.1503              -17.81          37.42          24.54          40.22       -0.02743          -5.36          126.2          41.85          55.52          19.28          51.05
    0.1538               -17.9          37.44          24.39          41.07        -0.5355         -5.754          121.4          41.37           52.9          19.55          52.49
    0.1573              -18.01          37.47          24.19          42.16         -1.188         -6.259          115.2          40.75          49.54          19.89          54.34
    0.1608              -18.16          37.51          23.94          43.55          -2.02         -6.904          107.3          39.96          45.24          20.32           56.7
    0.1643              -18.35          37.56          23.63           45.3         -3.068         -7.716           97.3          38.97          39.84          20.87          59.67
    0.1678              -18.58          37.63          23.25          47.44         -4.344         -8.705          85.15          37.76          33.25          21.53          63.28
    0.1712              -18.84           37.7          22.81          49.91         -5.823         -9.851          71.06          36.36          25.62           22.3          67.48
    0.1747              -19.13          37.78          22.34          52.59         -7.425         -11.09          55.81          34.85          17.36          23.14          72.02
    0.1782              -19.41          37.85          21.86          55.27         -9.026         -12.33          40.56          33.33          9.094          23.97          76.56
    0.1817              -19.68          37.93          21.42          57.74         -10.51         -13.48          26.48          31.93          1.461          24.74          80.75
    0.1852              -19.91          37.99          21.04          59.87         -11.78         -14.47          14.33          30.72         -5.123          25.41          84.37
    0.1887              -20.09          38.04          20.73          61.62         -12.83         -15.28          4.354          29.73         -10.53          25.96          87.34
    0.1922              -20.24          38.08          20.48          63.02         -13.66         -15.92         -3.576          28.94         -14.82          26.39           89.7
    0.1957              -20.36          38.11          20.29          64.11         -14.31         -16.43         -9.784          28.33         -18.19          26.73          91.55
    0.1992              -20.45          38.14          20.14          64.96         -14.82         -16.82         -14.62          27.85         -20.81          26.99          92.99
    0.2027              -20.52          38.16          20.02          65.62         -15.22         -17.13          -18.4          27.47         -22.86           27.2          94.12
    0.2062              -20.57          38.17          19.92          66.14         -15.53         -17.37         -21.37          27.18         -24.47          27.36           95.0
    0.2097              -20.62          38.18          19.85          66.56         -15.78         -17.56         -23.73          26.94         -25.75          27.49           95.7
    0.2132              -20.65          38.19          19.79          66.89         -15.98         -17.72         -25.63          26.75         -26.77           27.6          96.27
    0.2167              -20.68           38.2          19.74          67.16         -16.14         -17.84         -27.16           26.6          -27.6          27.68          96.72
    0.2202              -20.71          38.21           19.7          67.38         -16.27         -17.95         -28.42          26.48         -28.28          27.75           97.1
    0.2237              -20.73          38.21          19.67          67.56         -16.38         -18.03         -29.45          26.37         -28.85          27.81          97.41
